<?xml version="1.0" encoding="UTF-8"?>
<svg id="Layer_1" data-name="Layer 1" xmlns="http://www.w3.org/2000/svg" viewBox="0 0 1500 1500">
  <defs>
    <style>
      .cls-1 {
        fill: #fff;
      }

      .cls-2 {
        fill: #8f4d22;
      }

      .cls-3 {
        fill: none;
        stroke: #112d1e;
        stroke-linecap: round;
        stroke-linejoin: round;
        stroke-width: 70px;
      }

      .cls-4 {
        fill: #e26109;
      }

      .cls-5 {
        fill: #112d1e;
      }
    </style>
  </defs>
  <path class="cls-5" d="M211.41,1135.69c1.32,0,30.27-9.49,43.13-9.49,25.36,0,27.66,9.55,47.09,9.55h1076.5l-16.14-45.77-359.27-27-217.01-122.17-164.65,1.98-416.9,35.24-30.63,72.45,37.88,85.23Z"/>
  <g>
    <path class="cls-3" d="M183.14,945.8c13.05,0,24.12,2.52,33.2,7.55,9.08,5.04,15.89,12.24,20.43,21.6,1.84,3.55,3.26,8.09,4.26,13.62.99,5.53,1.49,12.42,1.49,20.64v29.37c0,6.53-.46,12.7-1.38,18.51-.92,5.82-2.23,10.71-3.94,14.68-4.4,10.5-11.21,18.51-20.43,24.05-9.22,5.53-20.43,8.3-33.62,8.3s-23.94-2.48-33.09-7.45c-9.15-4.96-16-12.2-20.54-21.71-3.83-7.66-5.75-19.08-5.75-34.26v-29.37c0-6.52.46-12.69,1.38-18.51.92-5.81,2.23-10.71,3.94-14.68,4.4-10.5,11.21-18.51,20.43-24.05,9.22-5.53,20.43-8.3,33.62-8.3ZM183.14,975.59c-8.94,0-15.18,2.41-18.73,7.23-3.55,4.82-5.32,13.34-5.32,25.54v33.2c0,12.06,1.77,20.53,5.32,25.43,3.54,4.89,9.79,7.34,18.73,7.34s15.18-2.45,18.73-7.34c3.54-4.9,5.32-13.37,5.32-25.43v-33.2c0-12.2-1.78-20.71-5.32-25.54-3.55-4.82-9.79-7.23-18.73-7.23Z"/>
    <path class="cls-3" d="M253.78,957.71c-.43-1.56-.64-2.69-.64-3.41,0-3.4,1.98-5.11,5.96-5.11h21.49c3.26,0,5.5.5,6.7,1.49,1.2.99,2.3,3.33,3.3,7.02l26.6,101.08,27.74-101.08c.99-3.69,2.09-6.03,3.3-7.02,1.2-.99,3.44-1.49,6.7-1.49h19.29c3.97,0,5.96,1.7,5.96,5.11,0,.99-.21,2.13-.64,3.41l-41.28,137.25c-.71,2.27-1.67,3.8-2.87,4.58-1.21.78-3.23,1.17-6.07,1.17h-22.63c-2.98,0-5.04-.39-6.17-1.17-1.14-.78-2.06-2.3-2.77-4.58l-43.98-137.25Z"/>
    <path class="cls-3" d="M495.11,1091.35c0,3.83-.5,6.35-1.49,7.55-.99,1.21-3.12,1.81-6.38,1.81h-79.8c-3.69,0-6.14-.53-7.34-1.6-1.21-1.06-1.81-3.23-1.81-6.49v-135.34c0-3.26.6-5.43,1.81-6.49,1.2-1.06,3.65-1.6,7.34-1.6h78.95c3.26,0,5.39.61,6.38,1.81.99,1.21,1.49,3.72,1.49,7.55v11.92c0,3.83-.5,6.35-1.49,7.55-.99,1.21-3.12,1.81-6.38,1.81h-53.2v28.09h47.67c3.26,0,5.39.6,6.38,1.81.99,1.21,1.49,3.72,1.49,7.55v11.07c0,3.83-.5,6.35-1.49,7.55-.99,1.21-3.12,1.81-6.38,1.81h-47.67v32.35h54.05c3.26,0,5.39.6,6.38,1.81.99,1.21,1.49,3.72,1.49,7.55v11.92Z"/>
    <path class="cls-3" d="M742.19,1091.35c0,3.83-.5,6.35-1.49,7.55-.99,1.21-3.12,1.81-6.38,1.81h-76.82c-3.69,0-6.14-.53-7.34-1.6-1.21-1.06-1.81-3.23-1.81-6.49v-135.34c0-3.26.6-5.43,1.81-6.49,1.2-1.06,3.65-1.6,7.34-1.6h16.6c3.69,0,6.13.53,7.34,1.6,1.2,1.07,1.81,3.23,1.81,6.49v112.36h51.07c3.26,0,5.39.61,6.38,1.81.99,1.21,1.49,3.72,1.49,7.55v12.34Z"/>
    <path class="cls-3" d="M927.49,1012.19v80.44c0,3.26-.61,5.43-1.84,6.49-1.23,1.06-3.71,1.6-7.45,1.6h-14.69c-3.75,0-6.19-.53-7.35-1.6-1.15-1.06-1.73-3.23-1.73-6.49v-135.34c0-3.26.61-5.43,1.84-6.49,1.22-1.06,3.71-1.6,7.45-1.6h13.4c4.18,0,7.09.46,8.75,1.38,1.65.92,3.35,3.09,5.08,6.49l42.78,80.44v-80.23c0-3.26.61-5.43,1.84-6.49,1.22-1.06,3.71-1.6,7.45-1.6h14.48c3.74,0,6.23.53,7.45,1.6,1.22,1.07,1.84,3.23,1.84,6.49v135.34c0,3.26-.61,5.43-1.84,6.49-1.23,1.06-3.71,1.6-7.45,1.6h-13.4c-4.18,0-7.1-.46-8.75-1.38-1.66-.92-3.35-3.09-5.08-6.49l-42.78-80.65Z"/>
    <path class="cls-3" d="M1085.96,949.2c2.34-.21,23.63-1.89,34.61,10.29,4.07,4.52,8.02,12.38,9.85,17.46,1.29,3.58,2.12,7.3,2.12,7.3.68,3.04.85,5.5,1.22,7.72.78,4.68,1.17,11.07,1.17,19.15v28.73c0,7.1.07,17.37-.71,21.98-.78,4.61-2.16,9.19-4.15,13.73-8.51,19.72-24.79,25.15-47.91,25.15h-48.94c-3.69,0-6.14-.53-7.34-1.6-1.21-1.06-1.81-3.23-1.81-6.49v-135.34c0-3.26.6-5.43,1.81-6.49,1.2-1.06,3.65-1.6,7.34-1.6h52.74ZM1057.66,1070.92h19.5c9.67,0,16.32-2.2,19.97-6.6,3.64-4.4,5.47-12.41,5.47-24.05v-30.64c0-10.92-1.98-18.76-5.94-23.51-3.96-4.75-10.46-7.13-19.5-7.13h-19.5v91.93Z"/>
    <path class="cls-3" d="M1247.48,1091.35c0,3.83-.5,6.35-1.49,7.55-.99,1.21-3.12,1.81-6.38,1.81h-79.8c-3.69,0-6.14-.53-7.34-1.6-1.21-1.06-1.81-3.23-1.81-6.49v-135.34c0-3.26.6-5.43,1.81-6.49,1.2-1.06,3.65-1.6,7.34-1.6h78.95c3.26,0,5.39.61,6.38,1.81.99,1.21,1.49,3.72,1.49,7.55v11.92c0,3.83-.5,6.35-1.49,7.55-.99,1.21-3.12,1.81-6.38,1.81h-53.2v28.09h47.67c3.26,0,5.39.6,6.38,1.81.99,1.21,1.49,3.72,1.49,7.55v11.07c0,3.83-.5,6.35-1.49,7.55-.99,1.21-3.12,1.81-6.38,1.81h-47.67v32.35h54.05c3.26,0,5.39.6,6.38,1.81.99,1.21,1.49,3.72,1.49,7.55v11.92Z"/>
    <path class="cls-3" d="M1293.58,1048.15v44.47c0,3.26-.63,5.43-1.89,6.49-1.26,1.06-3.81,1.6-7.66,1.6h-16.66c-3.85,0-6.41-.53-7.66-1.6-1.26-1.06-1.89-3.23-1.89-6.49v-135.34c0-3.26.63-5.43,1.89-6.49,1.26-1.06,3.81-1.6,7.66-1.6h51.76c17.62,0,32.86,3.72,41.08,11.17s12.33,19.19,12.33,35.22v6.17c0,19.86-10.17,33.48-25.87,40.86l28.88,50.01c.74,1.14,1.11,2.34,1.11,3.62,0,2.98-2.52,4.47-7.55,4.47h-21.55c-3.26,0-5.7-.53-7.33-1.6-1.63-1.06-3.26-3.23-4.89-6.49l-22.66-44.47h-19.1ZM1293.58,1019h21.4c14.91,0,22.37-5.89,22.37-17.66v-5.11c0-11.63-7.46-17.45-22.37-17.45h-21.4v40.22Z"/>
    <path class="cls-3" d="M548.07,1048.15v44.47c0,3.26-.63,5.43-1.89,6.49-1.26,1.06-3.81,1.6-7.66,1.6h-16.66c-3.85,0-6.41-.53-7.66-1.6-1.26-1.06-1.89-3.23-1.89-6.49v-135.34c0-3.26.63-5.43,1.89-6.49,1.26-1.06,3.81-1.6,7.66-1.6h51.76c17.62,0,32.86,3.72,41.08,11.17,8.22,7.45,12.33,19.19,12.33,35.22v6.17c0,19.86-10.17,33.48-25.87,40.86l28.88,50.01c.74,1.14,1.11,2.34,1.11,3.62,0,2.98-2.52,4.47-7.55,4.47h-21.55c-3.26,0-5.7-.53-7.33-1.6-1.63-1.06-3.26-3.23-4.89-6.49l-22.66-44.47h-19.1ZM548.07,1019h21.4c14.91,0,22.37-5.89,22.37-17.66v-5.11c0-11.63-7.46-17.45-22.37-17.45h-21.4v40.22Z"/>
    <path class="cls-3" d="M846.22,1083.35l2.57,8.64c1.22,3.97,2.36,6.42,3.45,7.34,1.08.92,3.11,1.38,6.08,1.38h18.86c3.78,0,5.68-1.63,5.68-4.89,0-.99-.04-1.7-.1-2.13-.07-.42-.3-1.13-.71-2.13l-42.59-135.13c-.95-2.98-2.03-4.93-3.24-5.85-1.22-.92-3.18-1.38-5.88-1.38h-23.52c-2.71,0-4.7.5-5.98,1.49-1.29.99-2.33,2.91-3.14,5.75l-42.99,135.13c-.54.71-.81,2.13-.81,4.26,0,3.27,1.89,4.89,5.68,4.89h17.64c3.24,0,5.37-.46,6.39-1.38,1.01-.92,2.06-3.23,3.14-6.92l2.57-9.06h56.92ZM801.13,1052.78l16.22-57.24,16.63,57.24h-32.85Z"/>
    <path class="cls-3" d="M1333.1,862.48h-452.99c-6.72,28.62-31.61,49.16-62.28,49.16h-211.87c-36.47,0-69-19.38-85.53-49.16H166.9c-36.33,0-65.78,29.45-65.78,65.78h0s1297.75,0,1297.75,0h0c0-36.33-29.45-65.78-65.78-65.78Z"/>
    <path class="cls-3" d="M1329.15,823.62l-164.02-154.4c-3.65-3.43-9.37-3.31-12.87.27l-38.55,39.43-15.62-94.62c-2.35-14.22-19.38-20.37-30.27-10.93l-185.96,160.03v77.01h440.65c8.8,0,13.07-10.76,6.66-16.8ZM1193.14,741.9l-17.57-14.8c-2.26-1.75-5.45-1.66-7.6.23l-22.74,21.17c-.75.66-1.87-.13-1.51-1.06l19.29-49.41c.73-1.87,3.25-2.18,4.41-.54l29.33,40.95c1.67,2.37-1.32,5.23-3.61,3.45Z"/>
    <path class="cls-3" d="M508.29,753.97l-157.9-101.24c-5.53-3.54-12.78-2.73-17.38,1.96l-161.5,164.59c-8.61,8.77-2.39,23.58,9.9,23.58h329.18c.55,0,1.08-.04,1.62-.1-2.53-8.64-3.91-17.77-3.91-27.23v-61.57ZM389.55,742l-24.84-11.38c-.52-.24-1.13-.11-1.51.32l-38.43,43.75c-.79.9-2.28.33-2.26-.87l.73-47.37c.01-.93-.93-1.57-1.79-1.21l-38.54,16.17c-1.28.54-2.39-1.05-1.44-2.07l65.22-70.15c.58-.63,1.61-.52,2.05.21l42.45,70.74c.65,1.09-.49,2.36-1.64,1.84Z"/>
    <path class="cls-3" d="M999.61,619.61l-224.53-219.83c-5.56-5.45-14.54-5.16-19.75.62l-105.56,117.25c-4.36,4.84-10.83,7.2-17.28,6.29l-38.62-5.44c-4.08-.57-8.21.51-11.48,3l-182.03,136.36c-1.71,1.31-1.57,3.93.27,5.04l107.65,61.6v-1.85c0-56.37,45.69-102.06,102.06-102.06h390.16l-.9-.98ZM842.01,512.76l-31.09-10.97c-.91-.32-1.81.48-1.58,1.41l13.63,56.19c.29,1.19-1.19,1.99-2.05,1.11l-45.28-46.22c-.39-.4-1.02-.48-1.5-.19l-59.04,35.83c-1.04.63-2.27-.49-1.71-1.57l34.51-66.5c.53-1.02-.55-2.12-1.59-1.63l-43.01,19.96c-1.21.56-2.31-.95-1.39-1.91l59.42-61.87c1.49-1.55,3.97-1.59,5.5-.09l76.45,74.46c.92.9-.03,2.41-1.26,1.98Z"/>
    <path class="cls-3" d="M646.47,640.48h-44.32c-27.9,0-50.52,22.62-50.52,50.52v123.88c0,31.42,25.47,56.89,56.89,56.89h37.95c58.03,0,86.96-7.07,86.96-7.07v-138.25h-84.33v45.7h26.74c2.38,0,4.31,1.93,4.31,4.31v41.24c0,2.38-1.93,4.31-4.31,4.31h-46.4c-9.35,0-16.94-7.58-16.94-16.94v-101.54c0-7.35,5.96-13.31,13.31-13.31h150.8v174.47h60.17v-174.47h52.36l36.74-49.75h-279.41Z"/>
  </g>
  <g>
    <path class="cls-1" d="M183.14,945.8c13.05,0,24.12,2.52,33.2,7.55,9.08,5.04,15.89,12.24,20.43,21.6,1.84,3.55,3.26,8.09,4.26,13.62.99,5.53,1.49,12.42,1.49,20.64v29.37c0,6.53-.46,12.7-1.38,18.51-.92,5.82-2.23,10.71-3.94,14.68-4.4,10.5-11.21,18.51-20.43,24.05-9.22,5.53-20.43,8.3-33.62,8.3s-23.94-2.48-33.09-7.45c-9.15-4.96-16-12.2-20.54-21.71-3.83-7.66-5.75-19.08-5.75-34.26v-29.37c0-6.52.46-12.69,1.38-18.51.92-5.81,2.23-10.71,3.94-14.68,4.4-10.5,11.21-18.51,20.43-24.05,9.22-5.53,20.43-8.3,33.62-8.3ZM183.14,975.59c-8.94,0-15.18,2.41-18.73,7.23-3.55,4.82-5.32,13.34-5.32,25.54v33.2c0,12.06,1.77,20.53,5.32,25.43,3.54,4.89,9.79,7.34,18.73,7.34s15.18-2.45,18.73-7.34c3.54-4.9,5.32-13.37,5.32-25.43v-33.2c0-12.2-1.78-20.71-5.32-25.54-3.55-4.82-9.79-7.23-18.73-7.23Z"/>
    <path class="cls-1" d="M253.78,957.71c-.43-1.56-.64-2.69-.64-3.41,0-3.4,1.98-5.11,5.96-5.11h21.49c3.26,0,5.5.5,6.7,1.49,1.2.99,2.3,3.33,3.3,7.02l26.6,101.08,27.74-101.08c.99-3.69,2.09-6.03,3.3-7.02,1.2-.99,3.44-1.49,6.7-1.49h19.29c3.97,0,5.96,1.7,5.96,5.11,0,.99-.21,2.13-.64,3.41l-41.28,137.25c-.71,2.27-1.67,3.8-2.87,4.58-1.21.78-3.23,1.17-6.07,1.17h-22.63c-2.98,0-5.04-.39-6.17-1.17-1.14-.78-2.06-2.3-2.77-4.58l-43.98-137.25Z"/>
    <path class="cls-1" d="M495.11,1091.35c0,3.83-.5,6.35-1.49,7.55-.99,1.21-3.12,1.81-6.38,1.81h-79.8c-3.69,0-6.14-.53-7.34-1.6-1.21-1.06-1.81-3.23-1.81-6.49v-135.34c0-3.26.6-5.43,1.81-6.49,1.2-1.06,3.65-1.6,7.34-1.6h78.95c3.26,0,5.39.61,6.38,1.81.99,1.21,1.49,3.72,1.49,7.55v11.92c0,3.83-.5,6.35-1.49,7.55-.99,1.21-3.12,1.81-6.38,1.81h-53.2v28.09h47.67c3.26,0,5.39.6,6.38,1.81.99,1.21,1.49,3.72,1.49,7.55v11.07c0,3.83-.5,6.35-1.49,7.55-.99,1.21-3.12,1.81-6.38,1.81h-47.67v32.35h54.05c3.26,0,5.39.6,6.38,1.81.99,1.21,1.49,3.72,1.49,7.55v11.92Z"/>
    <path class="cls-1" d="M742.19,1091.35c0,3.83-.5,6.35-1.49,7.55-.99,1.21-3.12,1.81-6.38,1.81h-76.82c-3.69,0-6.14-.53-7.34-1.6-1.21-1.06-1.81-3.23-1.81-6.49v-135.34c0-3.26.6-5.43,1.81-6.49,1.2-1.06,3.65-1.6,7.34-1.6h16.6c3.69,0,6.13.53,7.34,1.6,1.2,1.07,1.81,3.23,1.81,6.49v112.36h51.07c3.26,0,5.39.61,6.38,1.81.99,1.21,1.49,3.72,1.49,7.55v12.34Z"/>
    <path class="cls-1" d="M927.49,1012.19v80.44c0,3.26-.61,5.43-1.84,6.49-1.23,1.06-3.71,1.6-7.45,1.6h-14.69c-3.75,0-6.19-.53-7.35-1.6-1.15-1.06-1.73-3.23-1.73-6.49v-135.34c0-3.26.61-5.43,1.84-6.49,1.22-1.06,3.71-1.6,7.45-1.6h13.4c4.18,0,7.09.46,8.75,1.38,1.65.92,3.35,3.09,5.08,6.49l42.78,80.44v-80.23c0-3.26.61-5.43,1.84-6.49,1.22-1.06,3.71-1.6,7.45-1.6h14.48c3.74,0,6.23.53,7.45,1.6,1.22,1.07,1.84,3.23,1.84,6.49v135.34c0,3.26-.61,5.43-1.84,6.49-1.23,1.06-3.71,1.6-7.45,1.6h-13.4c-4.18,0-7.1-.46-8.75-1.38-1.66-.92-3.35-3.09-5.08-6.49l-42.78-80.65Z"/>
    <path class="cls-1" d="M1085.96,949.2c2.34-.21,23.63-1.89,34.61,10.29,4.07,4.52,8.02,12.38,9.85,17.46,1.29,3.58,2.12,7.3,2.12,7.3.68,3.04.85,5.5,1.22,7.72.78,4.68,1.17,11.07,1.17,19.15v28.73c0,7.1.07,17.37-.71,21.98-.78,4.61-2.16,9.19-4.15,13.73-8.51,19.72-24.79,25.15-47.91,25.15h-48.94c-3.69,0-6.14-.53-7.34-1.6-1.21-1.06-1.81-3.23-1.81-6.49v-135.34c0-3.26.6-5.43,1.81-6.49,1.2-1.06,3.65-1.6,7.34-1.6h52.74ZM1057.66,1070.92h19.5c9.67,0,16.32-2.2,19.97-6.6,3.64-4.4,5.47-12.41,5.47-24.05v-30.64c0-10.92-1.98-18.76-5.94-23.51-3.96-4.75-10.46-7.13-19.5-7.13h-19.5v91.93Z"/>
    <path class="cls-1" d="M1247.48,1091.35c0,3.83-.5,6.35-1.49,7.55-.99,1.21-3.12,1.81-6.38,1.81h-79.8c-3.69,0-6.14-.53-7.34-1.6-1.21-1.06-1.81-3.23-1.81-6.49v-135.34c0-3.26.6-5.43,1.81-6.49,1.2-1.06,3.65-1.6,7.34-1.6h78.95c3.26,0,5.39.61,6.38,1.81.99,1.21,1.49,3.72,1.49,7.55v11.92c0,3.83-.5,6.35-1.49,7.55-.99,1.21-3.12,1.81-6.38,1.81h-53.2v28.09h47.67c3.26,0,5.39.6,6.38,1.81.99,1.21,1.49,3.72,1.49,7.55v11.07c0,3.83-.5,6.35-1.49,7.55-.99,1.21-3.12,1.81-6.38,1.81h-47.67v32.35h54.05c3.26,0,5.39.6,6.38,1.81.99,1.21,1.49,3.72,1.49,7.55v11.92Z"/>
    <path class="cls-1" d="M1293.58,1048.15v44.47c0,3.26-.63,5.43-1.89,6.49-1.26,1.06-3.81,1.6-7.66,1.6h-16.66c-3.85,0-6.41-.53-7.66-1.6-1.26-1.06-1.89-3.23-1.89-6.49v-135.34c0-3.26.63-5.43,1.89-6.49,1.26-1.06,3.81-1.6,7.66-1.6h51.76c17.62,0,32.86,3.72,41.08,11.17s12.33,19.19,12.33,35.22v6.17c0,19.86-10.17,33.48-25.87,40.86l28.88,50.01c.74,1.14,1.11,2.34,1.11,3.62,0,2.98-2.52,4.47-7.55,4.47h-21.55c-3.26,0-5.7-.53-7.33-1.6-1.63-1.06-3.26-3.23-4.89-6.49l-22.66-44.47h-19.1ZM1293.58,1019h21.4c14.91,0,22.37-5.89,22.37-17.66v-5.11c0-11.63-7.46-17.45-22.37-17.45h-21.4v40.22Z"/>
    <path class="cls-1" d="M548.07,1048.15v44.47c0,3.26-.63,5.43-1.89,6.49-1.26,1.06-3.81,1.6-7.66,1.6h-16.66c-3.85,0-6.41-.53-7.66-1.6-1.26-1.06-1.89-3.23-1.89-6.49v-135.34c0-3.26.63-5.43,1.89-6.49,1.26-1.06,3.81-1.6,7.66-1.6h51.76c17.62,0,32.86,3.72,41.08,11.17,8.22,7.45,12.33,19.19,12.33,35.22v6.17c0,19.86-10.17,33.48-25.87,40.86l28.88,50.01c.74,1.14,1.11,2.34,1.11,3.62,0,2.98-2.52,4.47-7.55,4.47h-21.55c-3.26,0-5.7-.53-7.33-1.6-1.63-1.06-3.26-3.23-4.89-6.49l-22.66-44.47h-19.1ZM548.07,1019h21.4c14.91,0,22.37-5.89,22.37-17.66v-5.11c0-11.63-7.46-17.45-22.37-17.45h-21.4v40.22Z"/>
    <path class="cls-1" d="M846.22,1083.35l2.57,8.64c1.22,3.97,2.36,6.42,3.45,7.34,1.08.92,3.11,1.38,6.08,1.38h18.86c3.78,0,5.68-1.63,5.68-4.89,0-.99-.04-1.7-.1-2.13-.07-.42-.3-1.13-.71-2.13l-42.59-135.13c-.95-2.98-2.03-4.93-3.24-5.85-1.22-.92-3.18-1.38-5.88-1.38h-23.52c-2.71,0-4.7.5-5.98,1.49-1.29.99-2.33,2.91-3.14,5.75l-42.99,135.13c-.54.71-.81,2.13-.81,4.26,0,3.27,1.89,4.89,5.68,4.89h17.64c3.24,0,5.37-.46,6.39-1.38,1.01-.92,2.06-3.23,3.14-6.92l2.57-9.06h56.92ZM801.13,1052.78l16.22-57.24,16.63,57.24h-32.85Z"/>
    <path class="cls-1" d="M1333.1,862.48h-452.99c-6.72,28.62-31.61,49.16-62.28,49.16h-211.87c-36.47,0-69-19.38-85.53-49.16H166.9c-36.33,0-65.78,29.45-65.78,65.78h0s1297.75,0,1297.75,0h0c0-36.33-29.45-65.78-65.78-65.78Z"/>
    <path class="cls-4" d="M1329.15,823.62l-164.02-154.4c-3.65-3.43-9.37-3.31-12.87.27l-38.55,39.43-15.62-94.62c-2.35-14.22-19.38-20.37-30.27-10.93l-185.96,160.03v77.01h440.65c8.8,0,13.07-10.76,6.66-16.8ZM1193.14,741.9l-17.57-14.8c-2.26-1.75-5.45-1.66-7.6.23l-22.74,21.17c-.75.66-1.87-.13-1.51-1.06l19.29-49.41c.73-1.87,3.25-2.18,4.41-.54l29.33,40.95c1.67,2.37-1.32,5.23-3.61,3.45Z"/>
    <path class="cls-2" d="M508.29,753.97l-157.9-101.24c-5.53-3.54-12.78-2.73-17.38,1.96l-161.5,164.59c-8.61,8.77-2.39,23.58,9.9,23.58h329.18c.55,0,1.08-.04,1.62-.1-2.53-8.64-3.91-17.77-3.91-27.23v-61.57ZM389.55,742l-24.84-11.38c-.52-.24-1.13-.11-1.51.32l-38.43,43.75c-.79.9-2.28.33-2.26-.87l.73-47.37c.01-.93-.93-1.57-1.79-1.21l-38.54,16.17c-1.28.54-2.39-1.05-1.44-2.07l65.22-70.15c.58-.63,1.61-.52,2.05.21l42.45,70.74c.65,1.09-.49,2.36-1.64,1.84Z"/>
    <path class="cls-1" d="M999.61,619.61l-224.53-219.83c-5.56-5.45-14.54-5.16-19.75.62l-105.56,117.25c-4.36,4.84-10.83,7.2-17.28,6.29l-38.62-5.44c-4.08-.57-8.21.51-11.48,3l-182.03,136.36c-1.71,1.31-1.57,3.93.27,5.04l107.65,61.6v-1.85c0-56.37,45.69-102.06,102.06-102.06h390.16l-.9-.98ZM842.01,512.76l-31.09-10.97c-.91-.32-1.81.48-1.58,1.41l13.63,56.19c.29,1.19-1.19,1.99-2.05,1.11l-45.28-46.22c-.39-.4-1.02-.48-1.5-.19l-59.04,35.83c-1.04.63-2.27-.49-1.71-1.57l34.51-66.5c.53-1.02-.55-2.12-1.59-1.63l-43.01,19.96c-1.21.56-2.31-.95-1.39-1.91l59.42-61.87c1.49-1.55,3.97-1.59,5.5-.09l76.45,74.46c.92.9-.03,2.41-1.26,1.98Z"/>
    <path class="cls-1" d="M646.47,640.48h-44.32c-27.9,0-50.52,22.62-50.52,50.52v123.88c0,31.42,25.47,56.89,56.89,56.89h37.95c58.03,0,86.96-7.07,86.96-7.07v-138.25h-84.33v45.7h26.74c2.38,0,4.31,1.93,4.31,4.31v41.24c0,2.38-1.93,4.31-4.31,4.31h-46.4c-9.35,0-16.94-7.58-16.94-16.94v-101.54c0-7.35,5.96-13.31,13.31-13.31h150.8v174.47h60.17v-174.47h52.36l36.74-49.75h-279.41Z"/>
  </g>
</svg>